<?xml version="1.0" encoding="iso-8859-1"?>
<!-- Uploaded to: SVG Repo, www.svgrepo.com, Generator: SVG Repo Mixer Tools -->
<svg fill="currentColor" version="1.1" id="Layer_1" xmlns="http://www.w3.org/2000/svg" xmlns:xlink="http://www.w3.org/1999/xlink" 
	 viewBox="0 0 490 490" xml:space="preserve">
<g>
	<g>
		<g>
			<path d="M0,202.89v260.313h490V202.89H0z M474.688,447.891L474.688,447.891H15.312V218.202h459.376V447.891z"/>
			<path d="M50.859,424.922h158.593c6.936,0,12.578-5.642,12.578-12.579V253.75c0-6.936-5.642-12.579-12.578-12.579H50.859
				c-6.936,0-12.578,5.642-12.578,12.579v158.593C38.281,419.28,43.923,424.922,50.859,424.922z M53.593,256.484h153.126V409.61
				H53.593V256.484z"/>
			<path d="M421.094,302.421c16.887,0,30.625-13.738,30.625-30.624c0-16.887-13.738-30.625-30.625-30.625
				c-16.886,0-30.624,13.738-30.624,30.625C390.47,288.683,404.208,302.421,421.094,302.421z M421.094,256.484
				c8.444,0,15.313,6.87,15.313,15.313s-6.87,15.312-15.313,15.312s-15.312-6.87-15.312-15.312
				C405.782,263.353,412.651,256.484,421.094,256.484z"/>
			<path d="M336.875,302.421c16.887,0,30.625-13.738,30.625-30.624c0-16.887-13.738-30.625-30.625-30.625
				c-16.886,0-30.624,13.738-30.624,30.625C306.251,288.683,319.989,302.421,336.875,302.421z M336.875,256.484
				c8.444,0,15.313,6.87,15.313,15.313s-6.87,15.312-15.313,15.312s-15.312-6.87-15.312-15.312
				C321.563,263.353,328.432,256.484,336.875,256.484z"/>
			<rect x="328.161" y="310.405" width="15.87" height="14.878"/>
			<rect x="412.471" y="310.405" width="15.87" height="14.878"/>
			<path d="M451.72,348.36h-0.001H245.001v84.218H451.72V348.36z M436.407,417.266h-23.936v-38.421h-15.87v38.421h-20.83h0V402.65
				h-15.87v14.616h-24.797h0v-38.421h-15.87v38.421h-18.846h0V402.65h-15.87v14.616h-24.205v-53.594h176.094V417.266z"/>
			<polygon points="452.147,196.338 452.147,180.468 467.025,180.468 467.025,164.598 421.398,164.598 421.398,180.468 
				436.277,180.468 436.277,196.338 			"/>
			<polygon points="203.592,196.338 243.851,196.338 243.851,180.468 209.846,180.468 89.058,67.758 78.231,79.361 			"/>
			<path d="M61.25,72.733c12.665,0,22.969-10.303,22.969-22.968c0-12.665-10.304-22.968-22.969-22.968S38.281,37.1,38.281,49.765
				C38.281,62.43,48.585,72.733,61.25,72.733z M61.25,42.109c4.222,0,7.657,3.435,7.657,7.656s-3.435,7.656-7.657,7.656
				s-7.657-3.435-7.657-7.656S57.028,42.109,61.25,42.109z"/>
			<path d="M298.594,105.085h114.844c12.765,0,22.764,9.585,22.764,21.821h0.075v37.692h15.87V65.077
				c0-20.733-16.641-36.367-38.709-36.367H298.594c-21.263,0-38.56,17.131-38.56,38.188S277.332,105.085,298.594,105.085z
				 M298.594,44.58h114.844c11.35,0,22.839,7.041,22.839,20.497v31.234c-6.357-4.481-14.226-7.096-22.839-7.096H298.594
				c-12.724,0-22.69-9.803-22.69-22.317C275.904,54.384,285.87,44.58,298.594,44.58z"/>
			<rect x="59.36" y="278.665" width="16.862" height="15.87"/>
			<rect x="59.36" y="324.291" width="16.862" height="15.87"/>
			<rect x="59.36" y="369.918" width="16.862" height="15.87"/>
			<path d="M183.346,278.664v-14.878h-15.87v14.878v0.001h-29.757v-0.001v-14.878h-15.87v14.878v0.001H92.093v-0.001v-14.878h-15.87
				v14.878v15.871v29.756v15.87v29.757v15.87v16.862h15.87v-16.862h29.756v16.862h15.87v-16.862h29.757v16.862h15.87v-16.862h14.878
				v-15.87h-14.878v-29.757v0h14.878v-15.87h-14.878v-29.756h14.878v-15.87L183.346,278.664L183.346,278.664z M92.093,294.535
				h29.756v29.756H92.093V294.535z M92.093,369.918v-29.757v0h29.756v0v29.757H92.093z M167.476,340.161v29.757h-29.757v-29.757v0
				L167.476,340.161L167.476,340.161z M167.476,324.291h-29.757v-29.756h29.757V324.291z"/>
		</g>
	</g>
</g>
</svg>